{
	"asset":{
		"generator":"Khronos glTF Blender I/O v4.5.48",
		"version":"2.0"
	},
	"extensionsUsed":[
		"KHR_materials_clearcoat"
	],
	"scene":0,
	"scenes":[
		{
			"name":"Scene",
			"nodes":[
				0,
				1
			]
		}
	],
	"nodes":[
		{
			"mesh":0,
			"name":"Mesh_0.003",
			"scale":[
				1000,
				1000,
				1000
			]
		},
		{
			"mesh":1,
			"name":"Mesh_1.003"
		}
	],
	"materials":[
		{
			"extensions":{
				"KHR_materials_clearcoat":{
					"clearcoatFactor":0.03999999910593033,
					"clearcoatRoughnessFactor":0.003537758719176054
				}
			},
			"name":"Material_0.003",
			"pbrMetallicRoughness":{
				"baseColorFactor":[
					0.13013647496700287,
					0.12477056682109833,
					0.12477056682109833,
					1
				],
				"roughnessFactor":0.10999999940395355
			}
		},
		{
			"extensions":{
				"KHR_materials_clearcoat":{
					"clearcoatFactor":0.03999999910593033,
					"clearcoatRoughnessFactor":0.003537758719176054
				}
			},
			"name":"Material_1.003",
			"pbrMetallicRoughness":{
				"baseColorFactor":[
					0,
					0,
					0,
					1
				],
				"roughnessFactor":0.10999999940395355
			}
		}
	],
	"meshes":[
		{
			"name":"Mesh_0.003",
			"primitives":[
				{
					"attributes":{
						"POSITION":0,
						"NORMAL":1
					},
					"indices":2,
					"material":0
				}
			]
		},
		{
			"name":"Mesh_1.003",
			"primitives":[
				{
					"attributes":{
						"POSITION":3,
						"NORMAL":4
					},
					"indices":5,
					"material":1
				}
			]
		}
	],
	"accessors":[
		{
			"bufferView":0,
			"componentType":5126,
			"count":3306,
			"max":[
				0.006000000983476639,
				0.001447181566618383,
				0.0059999991208314896
			],
			"min":[
				-0.006000000052154064,
				-0.0014528183965012431,
				-0.006000000052154064
			],
			"type":"VEC3"
		},
		{
			"bufferView":1,
			"componentType":5126,
			"count":3306,
			"type":"VEC3"
		},
		{
			"bufferView":2,
			"componentType":5123,
			"count":10341,
			"type":"SCALAR"
		},
		{
			"bufferView":3,
			"componentType":5126,
			"count":421,
			"max":[
				0.0028526494279503822,
				0.001447181566618383,
				0.004940103739500046
			],
			"min":[
				-0.0029312139376997948,
				0.001447181566618383,
				0.00010010413825511932
			],
			"type":"VEC3"
		},
		{
			"bufferView":4,
			"componentType":5126,
			"count":421,
			"type":"VEC3"
		},
		{
			"bufferView":5,
			"componentType":5123,
			"count":1227,
			"type":"SCALAR"
		}
	],
	"bufferViews":[
		{
			"buffer":0,
			"byteLength":39672,
			"byteOffset":0,
			"target":34962
		},
		{
			"buffer":0,
			"byteLength":39672,
			"byteOffset":39672,
			"target":34962
		},
		{
			"buffer":0,
			"byteLength":20682,
			"byteOffset":79344,
			"target":34963
		},
		{
			"buffer":0,
			"byteLength":5052,
			"byteOffset":100028,
			"target":34962
		},
		{
			"buffer":0,
			"byteLength":5052,
			"byteOffset":105080,
			"target":34962
		},
		{
			"buffer":0,
			"byteLength":2454,
			"byteOffset":110132,
			"target":34963
		}
	],
	"buffers":[
		{
			"byteLength":112588,
			"uri":"model.bin"
		}
	]
}
