{
    "asset": {
        "version": "2.0",
        "generator": "Open Asset Import Library (assimp v5.2.cf7d3637)"
    },
    "extensionsUsed": [
        "KHR_materials_specular",
        "KHR_materials_clearcoat",
        "KHR_materials_volume",
        "FB_ngon_encoding"
    ],
    "accessors": [
        {
            "bufferView": 0,
            "byteOffset": 0,
            "componentType": 5126,
            "count": 10341,
            "type": "VEC3",
            "max": [
                0.006000001449137926,
                0.0014471816830337048,
                0.005999999586492777
            ],
            "min": [
                -0.006000000052154064,
                -0.0014528183965012432,
                -0.006000000052154064
            ]
        },
        {
            "bufferView": 1,
            "byteOffset": 0,
            "componentType": 5126,
            "count": 10341,
            "type": "VEC3",
            "max": [
                1.0,
                1.0,
                1.0
            ],
            "min": [
                -1.0,
                -1.0,
                -1.0
            ]
        },
        {
            "bufferView": 2,
            "byteOffset": 0,
            "componentType": 5126,
            "count": 10341,
            "type": "VEC2",
            "max": [
                1.0,
                1.0
            ],
            "min": [
                0.0,
                0.0
            ]
        },
        {
            "bufferView": 3,
            "byteOffset": 0,
            "componentType": 5125,
            "count": 10341,
            "type": "SCALAR",
            "max": [
                10340
            ],
            "min": [
                0
            ]
        },
        {
            "bufferView": 4,
            "byteOffset": 0,
            "componentType": 5126,
            "count": 1227,
            "type": "VEC3",
            "max": [
                0.002852649660781026,
                0.001447181566618383,
                0.004940104205161333
            ],
            "min": [
                -0.002931213704869151,
                0.001447181566618383,
                0.00010010442201746628
            ]
        },
        {
            "bufferView": 5,
            "byteOffset": 0,
            "componentType": 5126,
            "count": 1227,
            "type": "VEC3",
            "max": [
                0.0,
                1.0,
                -0.0
            ],
            "min": [
                0.0,
                1.0,
                -0.0
            ]
        },
        {
            "bufferView": 6,
            "byteOffset": 0,
            "componentType": 5126,
            "count": 1227,
            "type": "VEC2",
            "max": [
                0.9999999403953552,
                0.9999999403953552
            ],
            "min": [
                0.0,
                0.0
            ]
        },
        {
            "bufferView": 7,
            "byteOffset": 0,
            "componentType": 5125,
            "count": 1227,
            "type": "SCALAR",
            "max": [
                1226
            ],
            "min": [
                0
            ]
        }
    ],
    "buffers": [
        {
            "byteLength": 416448,
            "uri": "result.bin"
        }
    ],
    "bufferViews": [
        {
            "buffer": 0,
            "byteOffset": 0,
            "byteLength": 124092,
            "target": 34962
        },
        {
            "buffer": 0,
            "byteOffset": 124092,
            "byteLength": 124092,
            "target": 34962
        },
        {
            "buffer": 0,
            "byteOffset": 248184,
            "byteLength": 82728,
            "target": 34962
        },
        {
            "buffer": 0,
            "byteOffset": 330912,
            "byteLength": 41364,
            "target": 34963
        },
        {
            "buffer": 0,
            "byteOffset": 372276,
            "byteLength": 14724,
            "target": 34962
        },
        {
            "buffer": 0,
            "byteOffset": 387000,
            "byteLength": 14724,
            "target": 34962
        },
        {
            "buffer": 0,
            "byteOffset": 401724,
            "byteLength": 9816,
            "target": 34962
        },
        {
            "buffer": 0,
            "byteOffset": 411540,
            "byteLength": 4908,
            "target": 34963
        }
    ],
    "images": [
        {
            "uri": "data:image/png;base64,"
        },
        {
            "uri": "data:image/png;base64,"
        },
        {
            "uri": "data:image/png;base64,"
        }
    ],
    "materials": [
        {
            "name": "material",
            "pbrMetallicRoughness": {
                "baseColorFactor": [
                    0.6104955673217773,
                    0.6104894280433655,
                    0.6104894280433655,
                    1.0
                ],
                "roughnessFactor": 0.07000000029802323
            },
            "extensions": {
                "KHR_materials_specular": {
                    "specularFactor": 1.0,
                    "specularColorFactor": [
                        1.0,
                        1.0,
                        1.0
                    ]
                },
                "KHR_materials_clearcoat": {
                    "clearcoatFactor": 0.03999999910593033,
                    "clearcoatRoughnessFactor": 1.0,
                    "clearcoatRoughnessTexture": {
                        "index": 0
                    }
                }
            }
        },
        {
            "name": "material",
            "pbrMetallicRoughness": {
                "baseColorFactor": [
                    0.002731743035838008,
                    0.01520836353302002,
                    0.0,
                    1.0
                ],
                "roughnessFactor": 0.05999999865889549
            },
            "normalTexture": {
                "index": 1
            },
            "extensions": {
                "KHR_materials_specular": {
                    "specularFactor": 1.0,
                    "specularColorFactor": [
                        1.0,
                        1.0,
                        1.0
                    ]
                },
                "KHR_materials_clearcoat": {
                    "clearcoatFactor": 0.03999999910593033,
                    "clearcoatRoughnessFactor": 1.0,
                    "clearcoatRoughnessTexture": {
                        "index": 2
                    }
                }
            }
        },
        {
            "name": "material"
        }
    ],
    "meshes": [
        {
            "name": "meshes[0]",
            "primitives": [
                {
                    "mode": 4,
                    "material": 0,
                    "indices": 3,
                    "attributes": {
                        "POSITION": 0,
                        "NORMAL": 1,
                        "TEXCOORD_0": 2
                    }
                }
            ]
        },
        {
            "name": "meshes[1]",
            "primitives": [
                {
                    "mode": 4,
                    "material": 1,
                    "indices": 7,
                    "attributes": {
                        "POSITION": 4,
                        "NORMAL": 5,
                        "TEXCOORD_0": 6
                    }
                }
            ]
        }
    ],
    "nodes": [
        {
            "name": "ROOT",
            "children": [
                1,
                2
            ]
        },
        {
            "name": "nodes[0]",
            "mesh": 0
        },
        {
            "name": "nodes[1]",
            "mesh": 1
        }
    ],
    "samplers": [
        {
            "magFilter": 9729,
            "minFilter": 9987
        }
    ],
    "scenes": [
        {
            "nodes": [
                0
            ]
        }
    ],
    "textures": [
        {
            "source": 0,
            "sampler": 0
        },
        {
            "source": 1,
            "sampler": 0
        },
        {
            "source": 2,
            "sampler": 0
        }
    ],
    "scene": 0
}