<svg width="440" height="956" viewBox="0 0 440 956" fill="none" xmlns="http://www.w3.org/2000/svg">
    <g filter="url(#filter0_f_62_212)">
        <path d="M278.816 610.43C417.763 643.547 506.533 591.101 477.09 493.289C447.647 395.476 324.544 339.555 185.597 306.438C46.65 273.321 -72.1355 112.43 -42.6926 210.242C-13.2496 308.055 139.869 577.313 278.816 610.43Z" fill="#2D0001" fill-opacity="0.78"/>
    </g>
    <g filter="url(#filter1_f_62_212)">
        <path d="M95.1423 805.307C158.664 823.823 353.244 710.494 330.371 628.567C277.975 530.453 188.232 632.906 8.89873 492.696C-79.2851 414.262 -243.532 332.858 -220.659 414.785C-197.786 496.713 31.621 786.79 95.1423 805.307Z" fill="#87080F" fill-opacity="0.55"/>
    </g>
    <g filter="url(#filter2_f_62_212)">
        <path d="M403.807 412.928C507.881 498.52 486.252 358.342 423.485 301.803C340.757 294.863 125.975 138.463 124.377 161.373C122.779 184.283 165.599 249.97 228.366 306.509C291.133 363.048 365.058 399.93 403.807 412.928Z" fill="#C24143" fill-opacity="0.79"/>
    </g>
    <defs>
        <filter id="filter0_f_62_212" x="-194.112" y="32.2045" width="823.74" height="735.051" filterUnits="userSpaceOnUse" color-interpolation-filters="sRGB">
            <feFlood flood-opacity="0" result="BackgroundImageFix"/>
            <feBlend mode="normal" in="SourceGraphic" in2="BackgroundImageFix" result="shape"/>
            <feGaussianBlur stdDeviation="73.4494" result="effect1_foregroundBlur_62_212"/>
        </filter>
        <filter id="filter1_f_62_212" x="-340.339" y="263.133" width="790.088" height="661.704" filterUnits="userSpaceOnUse" color-interpolation-filters="sRGB">
            <feFlood flood-opacity="0" result="BackgroundImageFix"/>
            <feBlend mode="normal" in="SourceGraphic" in2="BackgroundImageFix" result="shape"/>
            <feGaussianBlur stdDeviation="58.7595" result="effect1_foregroundBlur_62_212"/>
        </filter>
        <filter id="filter2_f_62_212" x="50.8846" y="85.6341" width="498.778" height="427.754" filterUnits="userSpaceOnUse" color-interpolation-filters="sRGB">
            <feFlood flood-opacity="0" result="BackgroundImageFix"/>
            <feBlend mode="normal" in="SourceGraphic" in2="BackgroundImageFix" result="shape"/>
            <feGaussianBlur stdDeviation="36.7247" result="effect1_foregroundBlur_62_212"/>
        </filter>
    </defs>
</svg>
