<svg width="29" height="25" viewBox="0 0 29 25" fill="none" xmlns="http://www.w3.org/2000/svg">
    <path d="M10.1163 11.3929C13.1092 11.3929 15.5168 8.82447 15.3271 5.72232C15.1622 3.07047 13.0433 0.91898 10.4461 0.760537C7.41194 0.568737 4.89722 3.02044 4.89722 6.07256C4.89722 9.12468 7.23055 11.3929 10.1163 11.3929Z" stroke="#FFF4E6" stroke-width="1.5" stroke-linejoin="round"/>
    <path d="M16.2094 13.8111C14.5769 12.4435 12.4579 11.6179 10.1493 11.6179C4.95495 11.6096 0.75 15.7792 0.75 20.9244C0.75 20.9327 0.75 20.9494 0.75 20.9578C0.75 22.6006 2.10218 23.9181 3.70995 23.9181H16.5886C18.1964 23.9181 19.5486 22.6089 19.5486 20.9578C19.5486 20.9494 19.5486 20.9327 19.5486 20.9244C19.5486 20.2489 19.4744 19.5985 19.3342 18.9647" stroke="#FFF4E6" stroke-width="1.5" stroke-linejoin="round"/>
    <path d="M21.6097 10.5839C23.6132 10.5839 25.221 8.86602 25.0973 6.78958C24.9902 5.01334 23.572 3.57068 21.8323 3.46227C19.804 3.33718 18.1221 4.97999 18.1221 7.01473C18.1221 9.04948 19.6886 10.5755 21.6179 10.5755L21.6097 10.5839Z" stroke="#FFF4E6" stroke-width="1.5" stroke-linejoin="round"/>
    <path d="M21.6262 10.7341C19.3176 10.7341 17.2976 11.9683 16.2092 13.8113C17.7758 15.1205 18.8971 16.9134 19.3423 18.9732H25.9383C27.0184 18.9732 27.9171 18.0976 27.9171 16.9968C27.9171 16.9968 27.9171 16.9801 27.9171 16.9718C27.9171 13.5277 25.0973 10.7341 21.6262 10.7341Z" stroke="#FFF4E6" stroke-width="1.5" stroke-linejoin="round"/>
</svg>
