<svg width="30" height="26" viewBox="0 0 30 26" fill="none" xmlns="http://www.w3.org/2000/svg">
    <path d="M2.66104 14.9851C4.13069 14.9851 5.32208 13.5466 5.32208 11.7722C5.32208 9.99778 4.13069 8.55933 2.66104 8.55933C1.19139 8.55933 0 9.99778 0 11.7722C0 13.5466 1.19139 14.9851 2.66104 14.9851Z" fill="#FFF4E6"/>
    <path d="M7.82364 8.84152C9.29329 8.84152 10.4847 7.40307 10.4847 5.62865C10.4847 3.85423 9.29329 2.41577 7.82364 2.41577C6.35398 2.41577 5.1626 3.85423 5.1626 5.62865C5.1626 7.40307 6.35398 8.84152 7.82364 8.84152Z" fill="#FFF4E6"/>
    <path d="M15.1237 6.42575C16.5933 6.42575 17.7847 4.9873 17.7847 3.21288C17.7847 1.43845 16.5933 0 15.1237 0C13.654 0 12.4626 1.43845 12.4626 3.21288C12.4626 4.9873 13.654 6.42575 15.1237 6.42575Z" fill="#FFF4E6"/>
    <path d="M21.9801 8.84152C23.4498 8.84152 24.6412 7.40307 24.6412 5.62865C24.6412 3.85423 23.4498 2.41577 21.9801 2.41577C20.5105 2.41577 19.3191 3.85423 19.3191 5.62865C19.3191 7.40307 20.5105 8.84152 21.9801 8.84152Z" fill="#FFF4E6"/>
    <path d="M27.1513 14.9851C28.6209 14.9851 29.8123 13.5466 29.8123 11.7722C29.8123 9.99778 28.6209 8.55933 27.1513 8.55933C25.6816 8.55933 24.4902 9.99778 24.4902 11.7722C24.4902 13.5466 25.6816 14.9851 27.1513 14.9851Z" fill="#FFF4E6"/>
    <path d="M27.3289 19.4847C27.3289 22.5896 24.5525 25.1051 21.1287 25.1051C19.9933 25.1051 18.9289 24.8312 18.0152 24.3497C17.483 24.1006 16.3831 23.6689 14.9196 23.6606C13.4382 23.6606 12.3295 24.1006 11.7973 24.3497C10.8837 24.8312 9.82811 25.1051 8.69273 25.1051C5.26886 25.1051 2.48364 22.5896 2.48364 19.4847C2.48364 17.3428 3.80529 15.4831 5.74785 14.5367C6.19136 14.2627 6.77678 13.8227 7.3356 13.1752C7.76137 12.6853 8.05408 12.2038 8.24036 11.8053C9.18059 9.29812 11.8061 7.49658 14.893 7.49658C17.9798 7.49658 20.419 9.17359 21.4391 11.548C21.6254 11.9797 21.9447 12.5691 22.468 13.1752C23.0269 13.8227 23.6212 14.2627 24.0558 14.5367C26.0072 15.4831 27.3289 17.3428 27.3289 19.493V19.4847Z" fill="#FFF4E6"/>
</svg>
