<svg width="25" height="24" viewBox="0 0 25 24" fill="none" xmlns="http://www.w3.org/2000/svg">
    <g clip-path="url(#clip0_82_91)">
        <path d="M24.2303 10.3701C23.8054 10.3701 23.4606 10.6985 23.4606 11.1164V19.7015L17.2044 22.1492L17.186 14.1253C17.186 13.7134 16.8411 13.3791 16.4163 13.3791C15.9914 13.3791 15.6466 13.7134 15.6466 14.1253L15.665 22.1492L9.34729 19.7134L9.35961 7.64176L12.9988 9.06266C13.3929 9.21788 13.8424 9.03281 14.0025 8.65072C14.1564 8.26863 13.9655 7.83281 13.5714 7.67758L8.88547 5.84475C8.70074 5.77311 8.49138 5.77311 8.30665 5.84475L0.529557 8.88952C0.240148 9.00296 0.0492611 9.27758 0.0492611 9.57609L0 23.2477C0 23.4985 0.123153 23.7313 0.33867 23.8686C0.46798 23.9522 0.615764 24 0.769704 24C0.868227 24 0.966749 23.9821 1.05911 23.9462L8.57759 21.0268L16.1515 23.9462C16.3362 24.0179 16.5394 24.0179 16.7241 23.9403L24.5135 20.8955C24.8091 20.7821 25 20.5074 25 20.2089V11.1164C25 10.6985 24.6552 10.3701 24.2303 10.3701ZM7.80788 19.7194L1.54557 22.1492L1.58251 10.0836L7.8202 7.64773L7.80788 19.7194Z" fill="#FFF4E6"/>
        <path d="M19.569 4.2567C20.0062 4.2567 20.3572 4.597 20.3572 5.02088C20.3572 5.44476 20.0062 5.78505 19.569 5.78505C19.1318 5.78505 18.7809 5.44476 18.7809 5.02088C18.7809 4.597 19.1318 4.2567 19.569 4.2567ZM19.569 2.76416C18.2821 2.76416 17.2415 3.77909 17.2415 5.02088C17.2415 6.26267 18.2883 7.27759 19.569 7.27759C20.8498 7.27759 21.8966 6.26267 21.8966 5.02088C21.8966 3.77909 20.8498 2.76416 19.569 2.76416Z" fill="#FFF4E6"/>
        <path d="M19.4212 13.2657C19.2365 13.2657 19.0579 13.2 18.9163 13.0866C17.5924 11.9881 16.4901 10.6925 15.6404 9.24179C15.2956 8.65672 14.9815 8.02388 14.6921 7.30149C14.2611 6.2209 14.1256 5.17612 14.2796 4.19701C14.298 4.08358 14.3165 3.98209 14.3411 3.87463L14.3534 3.81493C14.3534 3.81493 14.3596 3.78507 14.3658 3.77313C14.4335 3.4806 14.532 3.19403 14.6552 2.9194C15.4187 1.15821 17.266 0.0179104 19.3411 0H19.7475C19.7475 0 19.7722 0 19.7783 0C22.0074 0 24.0209 1.36119 24.6798 3.3194C24.7291 3.45672 24.766 3.6 24.803 3.74925C24.803 3.76119 24.8091 3.7791 24.8153 3.79104C24.8522 3.95821 24.8707 4.06567 24.8892 4.16716C25.0431 5.15224 24.9015 6.19701 24.4766 7.27164C24.181 8 23.867 8.63284 23.5222 9.22388C22.5185 10.9433 21.0653 12.1373 20.1047 12.9313L19.92 13.0806C19.7968 13.1821 19.6429 13.2418 19.4828 13.2597C19.4643 13.2597 19.4397 13.2597 19.4212 13.2597V13.2657ZM15.8559 4.1194L15.8436 4.16716C15.8251 4.25672 15.8067 4.3403 15.7943 4.42388C15.6835 5.1403 15.7943 5.93433 16.1207 6.76418C16.3855 7.40896 16.6626 7.98209 16.9766 8.50746C17.5739 9.52836 18.3067 10.4597 19.1626 11.2896C19.3103 11.4328 19.5443 11.4388 19.6983 11.3075C20.5111 10.609 21.4901 9.67761 22.1798 8.49552C22.4938 7.96418 22.7709 7.39701 23.0419 6.74627C23.3682 5.92239 23.4791 5.13433 23.3682 4.40597C23.3559 4.32239 23.3374 4.23881 23.319 4.15522C23.3128 4.12537 23.3005 4.09552 23.2943 4.0597C23.2697 3.97015 23.2451 3.8806 23.2204 3.79701C22.7709 2.44776 21.3547 1.51045 19.7845 1.51045H19.3535C17.8879 1.52239 16.601 2.31045 16.0653 3.51642C15.9791 3.70746 15.9113 3.91045 15.8621 4.1194C15.8621 4.1194 15.8621 4.13134 15.8621 4.13731L15.8559 4.1194Z" fill="#FFF4E6"/>
    </g>
    <defs>
        <clipPath id="clip0_82_91">
            <rect width="25" height="24" fill="white"/>
        </clipPath>
    </defs>
</svg>
