<svg width="23" height="26" viewBox="0 0 23 26" fill="none" xmlns="http://www.w3.org/2000/svg">
    <path d="M11.2917 11.75C5.465 11.75 0.75 16.04 0.75 21.3339C0.75 21.3411 0.75 21.3556 0.75 21.3628C0.75 23.0528 2.26417 24.4033 4.07222 24.4033H18.5175C20.3256 24.4033 21.8333 23.0528 21.8397 21.3628C21.8397 21.3556 21.8397 21.3411 21.8397 21.3339C21.8397 16.04 17.1183 11.75 11.2981 11.75H11.2917Z" stroke="#FFF4E6" stroke-width="1.5" stroke-linejoin="round"/>
    <path d="M11.6022 11.695C14.9628 11.695 17.6589 9.05171 17.4417 5.86671C17.2564 3.13671 14.8797 0.926712 11.9664 0.760601C8.5675 0.565601 5.75 3.08616 5.75 6.22782C5.75 9.36949 8.36945 11.7023 11.6022 11.7023V11.695Z" stroke="#FFF4E6" stroke-width="1.5" stroke-linejoin="round"/>
</svg>
